:SAMPLES-PER-SECOND 30
:FULLY-SPECIFIED
:DEGREES
246
root  6.456355598 41.4657773 2.583222314 4.101989746 -67.85199738 2.161987305
lowerback  12.76519966 2.322139978 -2.497230053
upperback  4.43543005 2.635979891 0.3246619999
thorax  -2.624370098 1.24000001 1.355800033
lowerneck  -7.230579853 12.49009991 2.020989895
upperneck  3.328439951 16.57959938 -1.870589972
head  2.629149914 8.223489761 -0.1458320022
lclavicle  0 -9.442270133e-015 7.951389973e-016
lhumerus  0.4239889979 -11.47169971 80.56559753
lradius  2.816294042e-031 -2.130101383e-031 142.897995
lwrist  -7.062250077e-031 -0 7.01278019
lhand  -1.496451383e-031 -27.76390076 20.11240005
lfingers  90 7.125020027 -90
lthumb  89.89689403 5.08795885 91.16245106
rclavicle  0 -9.442270133e-015 7.951389973e-016
rhumerus  9.452249527 27.28860092 -76.21179962
rradius  -2.607744527e-031 2.380863817e-031 137.6040039
rwrist  1.412450015e-030 -0 -7.690969944
rhand  -7.920061211e-032 -33.2840004 9.303460121
rfingers  -90 -7.125020027 -90
rthumb  -92.93752616 -24.25625642 -97.11982154
rfemur  -26.77109909 12.2798996 4.861030102
rtibia  -0 0 44.83259964
rfoot  -4.456361242e-032 -7.915110111 1.126919985
rtoes  5.373923086 19.29304026 -105.8922705
lfemur  -24.18860054 3.857889891 -9.317660332
ltibia  -0 0 48.41289902
lfoot  6.625554019e-032 -2.157000065 2.427220106
ltoes  -4.250644065 -19.5611806 -102.515957
247
root  6.456221933 41.47933299 2.585800051 3.679016113 -67.95999908 2.492004395
lowerback  13.05010033 2.282239914 -2.521219969
upperback  4.373929977 2.571700096 0.3436610103
thorax  -2.84197998 1.210319996 1.387949944
lowerneck  -6.89440012 12.45779991 1.791509986
upperneck  3.428760052 16.55369949 -1.667029977
head  2.560470104 8.216560364 -0.07493229955
lclavicle  0 -9.442270133e-015 7.951389973e-016
lhumerus  0.3152549863 -11.4989996 80.58769989
lradius  2.810521311e-031 -2.137712328e-031 142.7429962
lwrist  -1.412450015e-030 -0 6.776830196
lhand  -1.496451383e-031 -27.76390076 20.11240005
lfingers  90 7.125020027 -90
lthumb  89.89689403 5.08795885 91.16245106
rclavicle  0 -9.442270133e-015 7.951389973e-016
rhumerus  9.295160294 27.19890022 -76.1835022
rradius  -2.605748852e-031 2.383047829e-031 137.5559998
rwrist  7.062250077e-031 -0 -7.771590233
rhand  -7.920061211e-032 -33.2840004 9.303460121
rfingers  -90 -7.125020027 -90
rthumb  -92.93752616 -24.25625642 -97.11982154
rfemur  -26.96850014 12.3362999 4.516129971
rtibia  -0 0 45.38869858
rfoot  -4.456846229e-032 -7.959829807 1.995350003
rtoes  5.373923086 19.29304026 -105.8922705
lfemur  -24.90519905 4.229939938 -9.303629875
ltibia  -0 0 49.56980133
lfoot  4.416555395e-032 -1.984570026 2.634200096
ltoes  -4.250644065 -19.5611806 -102.515957
248
root  6.444400127 41.46399911 2.593933316 3.067993164 -68.03700256 2.921020508
lowerback  13.27200031 2.196749926 -2.61590004
upperback  4.310949802 2.439019918 0.3211179972
thorax  -3.024889946 1.146880031 1.430170059
lowerneck  -6.350649834 12.45689964 1.799960017
upperneck  3.466330051 16.55400085 -1.546450019
head  2.464289904 8.224820137 -0.07826840132
lclavicle  0 -9.442270133e-015 7.951389973e-016
lhumerus  0.1059819981 -11.58740044 80.55239868
lradius  2.80499023e-031 -2.144964765e-031 142.5950012
lwrist  0 -1.765562519e-031 6.49793005
lhand  -1.496451383e-031 -27.76390076 20.11240005
lfingers  90 7.125020027 -90
lthumb  89.89689403 5.08795885 91.16245106
rclavicle  0 -9.442270133e-015 7.951389973e-016
rhumerus  9.140780449 27.20350075 -76.33409882
rradius  -2.602127109e-031 2.387002e-031 137.4689941
rwrist  1.412450015e-030 -0 -7.882830143
rhand  -7.920061211e-032 -33.2840004 9.303460121
rfingers  -90 -7.125020027 -90
rthumb  -92.93752616 -24.25625642 -97.11982154
rfemur  -27.00919914 12.35680008 4.217179775
rtibia  -0 0 46.09289932
rfoot  -4.452115348e-032 -7.511879921 2.399909973
rtoes  5.373923086 19.29304026 -105.8922705
lfemur  -25.35899925 4.457719803 -9.441320419
ltibia  -0 0 50.58319855
lfoot  4.417796032e-032 -2.404510021 4.113840103
ltoes  -4.250644065 -19.5611806 -102.515957
249
root  6.422889139 41.42022321 2.60595562 2.679992676 -68.07499695 3.039001465
lowerback  13.36810017 2.210059881 -2.445489883
upperback  4.404190063 2.466130018 0.172931999
thorax  -2.967159986 1.157660007 1.174360037
lowerneck  -6.349559784 12.35639954 2.132349968
upperneck  3.747859955 16.3852005 -1.380319953
head  2.571269989 8.147219658 -0.07174289972
lclavicle  0 -9.442270133e-015 7.951389973e-016
lhumerus  0.307595998 -12.13729954 80.38600159
lradius  2.795566467e-031 -2.157232524e-031 142.3439941
lwrist  -1.412450015e-030 -3.531125038e-031 6.101490021
lhand  -1.496451383e-031 -27.76390076 20.11240005
lfingers  90 7.125020027 -90
lthumb  89.89689403 5.08795885 91.16245106
rclavicle  0 -9.442270133e-015 7.951389973e-016
rhumerus  9.21930027 26.72139931 -76.55020142
rradius  -2.597915389e-031 2.391585179e-031 137.3679962
rwrist  7.062250077e-031 -0 -7.976510048
rhand  -7.920061211e-032 -33.2840004 9.303460121
rfingers  -90 -7.125020027 -90
rthumb  -92.93752616 -24.25625642 -97.11982154
rfemur  -26.9307003 12.40799999 4.156720161
rtibia  -0 0 46.95389938
rfoot  -4.451784204e-032 -7.479489803 2.105220079
rtoes  5.373923086 19.29304026 -105.8922705
lfemur  -25.65539932 4.678150177 -9.47148037
ltibia  -0 0 51.39300156
lfoot  4.420378399e-032 -3.100869894 6.333590031
ltoes  -4.250644065 -19.5611806 -102.515957
